<svg width="26" height="23" viewBox="0 0 26 23" fill="none" xmlns="http://www.w3.org/2000/svg">
<path fill-rule="evenodd" clip-rule="evenodd" d="M9.07325 1C8.21489 1 7.49945 1.45905 7.02693 2.07962C6.55494 2.69948 6.28812 3.51758 6.28812 4.38541C6.28812 5.25322 6.55494 6.07133 7.02693 6.69118C7.49945 7.31175 8.21489 7.7708 9.07325 7.7708C9.93161 7.7708 10.647 7.31175 11.1196 6.69118C11.5916 6.07133 11.8584 5.25322 11.8584 4.38541C11.8584 3.51758 11.5916 2.69948 11.1196 2.07962C10.647 1.45905 9.93161 1 9.07325 1ZM16.261 1C15.4027 1 14.6872 1.45905 14.2147 2.07962C13.7427 2.69948 13.4759 3.51758 13.4759 4.38541C13.4759 5.25322 13.7427 6.07133 14.2147 6.69118C14.6872 7.31175 15.4027 7.7708 16.261 7.7708C17.1194 7.7708 17.8348 7.31175 18.3073 6.69118C18.7792 6.07133 19.0461 5.25322 19.0461 4.38541C19.0461 3.51758 18.7792 2.69948 18.3073 2.07962C17.8348 1.45905 17.1194 1 16.261 1ZM21.4508 7.38839C19.6881 7.38839 18.5684 9.09495 18.5684 10.7738C18.5684 12.4526 19.6881 14.1592 21.4508 14.1592C23.2137 14.1592 24.3333 12.4526 24.3333 10.7738C24.3333 9.09495 23.2137 7.38839 21.4508 7.38839ZM3.88249 7.38839C2.11968 7.38839 1 9.09495 1 10.7738C1 12.4526 2.11968 14.1592 3.88249 14.1592C5.64529 14.1592 6.76497 12.4526 6.76497 10.7738C6.76497 9.09495 5.64529 7.38839 3.88249 7.38839ZM12.6667 10.604C10.6401 10.604 9.14228 11.6907 8.1843 13.0367C7.23996 14.3635 6.76515 16.0077 6.76515 17.3444C6.76515 18.9087 7.70576 19.995 8.85368 20.6461C9.98407 21.287 11.3991 21.5684 12.6667 21.5684C13.9344 21.5684 15.3494 21.287 16.4798 20.6461C17.6277 19.995 18.5684 18.9087 18.5684 17.3444C18.5684 16.0077 18.0934 14.3635 17.1492 13.0367C16.1912 11.6907 14.6934 10.604 12.6667 10.604Z" stroke="#FAFDFE" stroke-width="1.5"/>
</svg>
