<svg width="17" height="16" viewBox="0 0 17 16" fill="none" xmlns="http://www.w3.org/2000/svg">
<path d="M8.38892 3.08248C10.4523 3.08248 12.0928 3.59922 13.1466 4.59295C14.2445 5.581 14.825 7.06307 14.825 8.8745C14.825 10.6859 14.2508 12.2077 13.1466 13.156C12.0487 14.1441 10.4018 14.6665 8.38892 14.6665C6.37607 14.6665 4.68501 14.1498 3.63126 13.156C2.53334 12.168 1.95283 10.6859 1.95283 8.8745C1.95283 7.06307 2.53334 5.581 3.63126 4.59295C4.72918 3.6049 6.37607 3.08248 8.38892 3.08248ZM8.38892 2.23071C6.11736 2.23071 4.22439 2.85534 2.96241 3.99103C1.70044 5.12672 1.00635 6.83025 1.00635 8.8745C1.00635 10.9187 1.70044 12.6223 2.96241 13.758C4.22439 14.9504 6.11736 15.5183 8.38892 15.5183C10.6605 15.5183 12.5535 14.8936 13.8154 13.758C15.1405 12.6223 15.7715 10.9187 15.7715 8.8745C15.7715 6.83025 15.0774 5.12672 13.8154 3.99103C12.5535 2.79856 10.6605 2.23071 8.38892 2.23071Z" fill="#15181D" stroke="#21262E" stroke-width="0.5"/>
<path d="M10.1747 11.2878C10.0485 11.2878 9.92226 11.231 9.79607 11.1742L8.15549 9.69784C8.0924 9.64105 8.0293 9.4707 8.0293 9.35713V6.9154C8.0293 6.68826 8.28169 6.46112 8.53409 6.46112C8.78648 6.46112 9.03888 6.68826 9.03888 6.9154V9.18678L10.5533 10.5496C10.7426 10.72 10.7426 11.0039 10.5533 11.1742C10.4271 11.231 10.3009 11.2878 10.1747 11.2878Z" fill="#15181D" stroke="#21262E" stroke-width="0.5"/>
<path d="M3.57449 0.600998C3.39782 0.442001 3.03815 0.442001 2.86148 0.600998L2.21156 1.18588L1.30293 2.00357L0.646705 2.59413C0.451098 2.77016 0.451098 3.05977 0.646705 3.2358C0.842312 3.41183 1.16412 3.41183 1.35972 3.2358L2.00964 2.65092L3.56819 1.24834C3.74486 1.08934 3.74486 0.765673 3.56819 0.606676L3.57449 0.600998Z" fill="#15181D" stroke="#21262E" stroke-width="0.5"/>
<path d="M13.2033 0.600998C13.0266 0.759994 13.0266 1.08367 13.2033 1.24266L13.8532 1.82754L14.7619 2.64524L15.4118 3.23012C15.6074 3.40615 15.9292 3.40615 16.1248 3.23012C16.3204 3.05409 16.3204 2.76449 16.1248 2.58845L15.4749 2.00357L13.9163 0.600998C13.7396 0.442001 13.38 0.442001 13.2033 0.600998Z" fill="#15181D" stroke="#21262E" stroke-width="0.5"/>
</svg>
