<svg width="24" height="26" viewBox="0 0 24 26" fill="none" xmlns="http://www.w3.org/2000/svg">
<path fill-rule="evenodd" clip-rule="evenodd" d="M11.104 1H12.4589C12.9662 1.00065 13.4626 1.15418 13.8813 1.44057C14.2996 1.72672 14.6221 2.13222 14.8066 2.60424L15.4264 4.17962L17.3099 5.26698L18.9802 5.01292C19.4825 4.93713 19.9969 5.01444 20.4544 5.23503C20.9117 5.45551 21.2918 5.80867 21.5453 6.24844L22.221 7.41793C22.4752 7.85772 22.5907 8.36393 22.5526 8.87044C22.5146 9.37696 22.3245 9.8602 22.0075 10.257L20.9542 11.5767V13.7573L22.0013 15.0763C22.3179 15.473 22.5084 15.9568 22.5464 16.4629C22.5846 16.9694 22.469 17.4756 22.2149 17.9155L21.5396 19.084C21.2861 19.5237 20.9053 19.8779 20.4481 20.0982C19.9906 20.319 19.4773 20.3964 18.975 20.3205L17.3037 20.0664L15.4173 21.1553L14.8009 22.7278C14.6164 23.2 14.2935 23.6065 13.8751 23.8928C13.4564 24.1792 12.9611 24.3326 12.4538 24.3333H11.1009C10.5936 24.3326 10.0972 24.1792 9.67851 23.8928C9.25986 23.6064 8.93724 23.2005 8.75271 22.728L8.13626 21.1553L6.24993 20.0664L4.57959 20.3203C4.07734 20.3962 3.5629 20.319 3.10537 20.0982C2.64821 19.8779 2.26812 19.5248 2.01465 19.0852L1.33873 17.9155C1.0846 17.4756 0.969019 16.9694 1.00711 16.4629C1.04519 15.9565 1.23507 15.4734 1.55196 15.0767L2.6055 13.7566V11.5767L1.55225 10.257C1.23536 9.86027 1.04519 9.3768 1.00711 8.87045C0.969019 8.36395 1.08459 7.85772 1.33872 7.41795L2.01401 6.24929C2.26748 5.8094 2.64804 5.45554 3.10537 5.23503C3.5629 5.01444 4.07633 4.93697 4.57859 5.01276L6.24505 5.26687L8.13678 4.17174L8.75643 2.60364C8.94106 2.13188 9.26342 1.7266 9.68159 1.44057C10.1003 1.15418 10.5967 1.00065 11.104 1ZM11.7797 16.1235C13.6888 16.1235 15.2365 14.5758 15.2365 12.6667C15.2365 10.7575 13.6888 9.20988 11.7797 9.20988C9.87055 9.20988 8.3229 10.7575 8.3229 12.6667C8.3229 14.5758 9.87055 16.1235 11.7797 16.1235Z" stroke="#FAFDFE" stroke-width="1.5"/>
</svg>
